<?xml version="1.0" encoding="UTF-8"?>
<svg id="Layer_2" data-name="Layer 2" xmlns="http://www.w3.org/2000/svg" xmlns:xlink="http://www.w3.org/1999/xlink" viewBox="0 0 200.56 55.53">
  <defs>
    <style>
      .cls-1 {
        fill: #ba141a;
      }

      .cls-2 {
        clip-path: url(#clippath-2);
      }

      .cls-3 {
        fill: url(#radial-gradient-4);
      }

      .cls-4 {
        clip-path: url(#clippath-1);
      }

      .cls-5 {
        clip-path: url(#clippath-4);
      }

      .cls-6 {
        fill: #0a0203;
      }

      .cls-7 {
        fill: url(#radial-gradient);
      }

      .cls-8 {
        clip-path: url(#clippath);
      }

      .cls-9 {
        fill: url(#radial-gradient-2);
      }

      .cls-10 {
        fill: none;
      }

      .cls-11 {
        fill: #195382;
      }

      .cls-12 {
        fill: url(#radial-gradient-3);
      }

      .cls-13 {
        clip-path: url(#clippath-3);
      }

      .cls-14 {
        fill: url(#linear-gradient);
      }
    </style>
    <clipPath id="clippath">
      <path class="cls-10" d="M14.27,20.89c-.05-.25-.26-.45-.5-.51l-1.11-.27,1.11-.28c.24-.05,.45-.26,.5-.51l.28-1.1,.27,1.1c.07,.25,.26,.46,.51,.51l1.11,.28-1.11,.27c-.25,.06-.44,.26-.51,.51l-.27,1.1-.28-1.1Zm-5.35-2.69c-.1-.4-.41-.7-.8-.8l-1.75-.43,1.75-.43c.39-.09,.7-.41,.8-.8l.43-1.75,.43,1.75c.09,.39,.4,.71,.8,.8l1.74,.43-1.74,.43c-.4,.1-.71,.4-.8,.8l-.43,1.74-.43-1.74ZM0,27.79c0,.47,.01,.94,.04,1.4,.01,.33,.03,.65,.07,.98,.01,.25,.04,.5,.07,.75,.02,.21,.04,.42,.08,.62,.02,.2,.05,.39,.08,.59v.07c.06,.33,.12,.65,.18,.97l1.14,.41c1.96,.71,3.73,1.07,5.26,1.07,5.1,0,7.69-3.8,11.83-10.52,2.6-4.23,5.54-9.02,10.02-13.16,4.05-3.75,8.75-5.96,14-6.6-.18-.11-.36-.22-.54-.34,0,0-.03-.02-.06-.03-.31-.19-.63-.37-.96-.56-.07-.03-.15-.08-.22-.12-.37-.19-.74-.39-1.11-.56-.38-.19-.76-.36-1.14-.52-.2-.09-.41-.18-.62-.26-.32-.13-.63-.25-.95-.36-.35-.13-.7-.24-1.05-.35-.75-.24-1.52-.44-2.29-.61-.2-.05-.41-.09-.6-.13-.28-.06-.56-.11-.85-.15-.06-.01-.13-.02-.19-.03-.13-.03-.29-.05-.43-.06-.26-.05-.52-.08-.79-.11-.17-.02-.34-.04-.51-.05-.41-.04-.83-.07-1.24-.09C28.75,.01,28.28,0,27.8,0,12.44,0,0,12.44,0,27.79"/>
    </clipPath>
    <radialGradient id="radial-gradient" cx="-53.53" cy="2163.51" fx="-53.53" fy="2163.51" r="1" gradientTransform="translate(1063.18 42121.79) scale(19.46 -19.46)" gradientUnits="userSpaceOnUse">
      <stop offset="0" stop-color="#166e9e"/>
      <stop offset="1" stop-color="#195382"/>
    </radialGradient>
    <clipPath id="clippath-1">
      <path class="cls-10" d="M29.08,28.87c-1.58,2.99-3.07,5.82-4.8,8.38-5.31,7.82-12,9.45-16.68,9.45h-.18c.22,.24,.45,.48,.69,.72h.01c.13,.13,.28,.25,.41,.38,.02,0,.04,.03,.06,.05,.17,.16,.34,.33,.51,.49,.26,.24,.52,.47,.79,.7,.2,.17,.4,.33,.61,.49l1.45-.19c10.27-1.32,15.08-8.71,21.97-24.79,3.29-7.67,7.66-11.72,11.54-13.85-8.21,2.74-12.36,10.57-16.38,18.17"/>
    </clipPath>
    <linearGradient id="linear-gradient" x1="-51.98" y1="2163.28" x2="-50.98" y2="2163.28" gradientTransform="translate(1985.09 82328.11) scale(38.04 -38.04)" gradientUnits="userSpaceOnUse">
      <stop offset="0" stop-color="#0a0203"/>
      <stop offset="1" stop-color="#494748"/>
    </linearGradient>
    <clipPath id="clippath-2">
      <path class="cls-10" d="M43.29,32.41c-3.71,9.27-7.54,18.82-13.47,23.11,1.69-.12,3.34-.39,4.92-.8,4.45-1.14,8.46-3.35,11.74-6.35,.33-.3,.65-.6,.96-.92,.64-.63,1.24-1.29,1.79-1.97,.58-.69,1.11-1.4,1.6-2.14h0c.24-.37,.48-.74,.71-1.11,0-.02,.02-.03,.02-.05,.21-.34,.41-.68,.59-1.02,.49-.87,.92-1.77,1.29-2.69,.16-.37,.31-.74,.44-1.12,.32-.85,.59-1.72,.82-2.61,.1-.42,.2-.84,.29-1.26,.02-.05,.03-.1,.03-.15,.19-.88,.32-1.78,.41-2.69,.1-.93,.15-1.88,.15-2.84,0-.1,0-.2,0-.3,0-.1,0-.19,0-.29,0-.21,0-.41-.01-.61,0-.11,0-.21-.02-.32v-.08c-.01-.1-.01-.21-.03-.32,0-.05,0-.1-.01-.15,0-.06,0-.12,0-.18,0-.09,0-.19-.02-.28-.03-.37-.07-.74-.13-1.11,0-.02,0-.04,0-.06v-.02s0-.01,0-.01c-.35-2.67-1.08-5.21-2.15-7.59-.27-.62-.56-1.22-.89-1.81-3.4,3.75-6.25,10.86-9.01,17.75"/>
    </clipPath>
    <radialGradient id="radial-gradient-2" cx="-53.97" cy="2163.58" fx="-53.97" fy="2163.58" r="1" gradientTransform="translate(964.62 36990.9) scale(17.08 -17.08)" xlink:href="#radial-gradient"/>
    <clipPath id="clippath-3">
      <path class="cls-10" d="M49.55,10.5c-4.63,1.42-10.3,5.23-14.33,14.62-6.83,15.93-11.84,24.19-23.09,25.64,.71,.5,1.45,.96,2.22,1.37,.4,.22,.81,.43,1.22,.63,.41,.2,.82,.39,1.24,.57,2.1,.92,4.34,1.57,6.68,1.92,.85,.14,1.7,.23,2.57,.28h.01c.4-.18,.81-.38,1.23-.6,11.12-5.8,15.26-32.94,24.02-41.92,1.83-1.89,3.86-2.97,6.21-2.91-.19-.12-1.28-.39-2.93-.39-1.37,0-3.12,.18-5.06,.79"/>
    </clipPath>
    <radialGradient id="radial-gradient-3" cx="-53.07" cy="2163.44" fx="-53.07" fy="2163.44" r="1" gradientTransform="translate(1245.06 49370.61) scale(22.81 -22.81)" gradientUnits="userSpaceOnUse">
      <stop offset="0" stop-color="#ed1c24"/>
      <stop offset="1" stop-color="#ba141a"/>
    </radialGradient>
    <clipPath id="clippath-4">
      <path class="cls-10" d="M45.06,6.03c-4.71,.17-10.1,1.7-15.05,6.29-12.52,11.57-12.8,28.84-28.98,22.99,.49,1.79,1.16,3.49,1.98,5.1,.13,.27,.28,.54,.43,.81,.21,.4,.44,.79,.68,1.17,.62,.99,1.29,1.94,2.02,2.84,4.42,.34,11.44-.67,16.95-8.78,6.71-9.89,10.46-25.27,24.8-27.84,2.91-.53,6.26-.53,10.16,.16,0,0-5.22-2.76-12.06-2.76-.31,0-.62,0-.93,.02"/>
    </clipPath>
    <radialGradient id="radial-gradient-4" cx="-52.88" cy="2163.41" fx="-52.88" fy="2163.41" r="1" gradientTransform="translate(1324.16 52988.15) scale(24.48 -24.48)" xlink:href="#radial-gradient-3"/>
  </defs>
  <g id="Layer_1-2" data-name="Layer 1">
    <path class="cls-11" d="M182.86,54.79c0-.41,.33-.75,.75-.75s.75,.34,.75,.75-.34,.75-.75,.75-.75-.34-.75-.75"/>
    <path class="cls-11" d="M190.27,54.79c0-.41,.33-.75,.75-.75s.75,.34,.75,.75-.34,.75-.75,.75-.75-.34-.75-.75"/>
    <path class="cls-11" d="M199.06,54.79c0-.41,.33-.75,.75-.75s.75,.34,.75,.75-.34,.75-.75,.75-.75-.34-.75-.75"/>
    <g class="cls-8">
      <rect class="cls-7" y="0" width="42.77" height="34.65"/>
    </g>
    <g class="cls-4">
      <rect class="cls-14" x="7.42" y="10.7" width="38.04" height="38.83"/>
    </g>
    <g class="cls-2">
      <rect class="cls-9" x="29.83" y="14.66" width="25.77" height="40.86"/>
    </g>
    <g class="cls-13">
      <rect class="cls-12" x="12.14" y="9.71" width="45.4" height="45.82"/>
    </g>
    <g class="cls-5">
      <rect class="cls-3" x="1.03" y="6.01" width="57.02" height="39.56"/>
    </g>
    <polygon class="cls-6" points="81.13 0 81.13 1.49 72.12 1.49 72.12 10.03 80.16 10.03 80.16 11.39 72.12 11.39 72.12 19.93 81.53 19.93 81.53 21.42 69.42 21.42 69.42 0 81.13 0"/>
    <path class="cls-6" d="M84.79,9c0-.81-.68-1.46-1.49-1.46v-1.49c1.77,0,3.88,.75,4.16,2.92,1.21-1.86,3.17-3.29,5.28-3.29,2.61,0,4.44,1.49,5.15,3.82,1.18-2.14,3.29-3.82,5.59-3.82,3.38,0,5.68,2.51,5.68,6.18v9.56h-2.73V12.11c0-2.58-.87-4.56-3.38-4.56s-4.81,2.76-4.81,5.56v8.32h-2.73l.03-9.31c0-2.58-.71-4.56-3.23-4.56s-4.81,2.76-4.81,5.56v8.32h-2.7V9Z"/>
    <path class="cls-6" d="M112.41,8.57c-.03-.81-.68-1.46-1.49-1.46v-1.46c1.89,0,4.19,.87,4.19,3.45v12.32h-2.7V8.57Z"/>
    <path class="cls-6" d="M113.5,4.45c-.93,0-1.65-.71-1.65-1.61s.71-1.65,1.65-1.65,1.61,.78,1.61,1.65-.71,1.61-1.61,1.61"/>
    <path class="cls-6" d="M164.1,33.19c-.03-.81-.68-1.46-1.49-1.46v-1.46c1.89,0,4.19,.87,4.19,3.45v12.32h-2.7v-12.85Z"/>
    <path class="cls-6" d="M165.18,29.08c-.93,0-1.65-.71-1.65-1.61s.71-1.65,1.65-1.65,1.61,.78,1.61,1.65-.71,1.61-1.61,1.61"/>
    <path class="cls-6" d="M126.69,7.98c-3.07,0-5.37,.99-5.62,4.38l-.03,9.06h-2.7V8.6c0-.81-.65-1.49-1.46-1.49v-1.46c1.8,0,3.97,1.36,4.19,3.17,1.27-1.92,3.32-3.17,5.62-3.17v2.33Z"/>
    <path class="cls-6" d="M151.84,32.6c-3.07,0-5.37,.99-5.62,4.38l-.03,9.06h-2.7v-12.82c0-.81-.65-1.49-1.46-1.49v-1.46c1.8,0,3.97,1.37,4.19,3.17,1.27-1.93,3.32-3.17,5.62-3.17v2.33Z"/>
    <path class="cls-6" d="M142.19,21.42c-1.89,0-3.41-.65-3.97-1.92-1.15,1.37-3.17,2.3-5.4,2.3-3.35,0-5.62-2.14-5.62-5,0-4.38,7.98-5.74,10.8-6.08-.06-2.2-.87-3.57-3.26-3.57-1.83,0-3.88,.96-4.87,1.64l-1.4-1.68c1.77-.96,3.94-1.46,5.96-1.46s3.69,.47,4.81,1.4c1.55,1.27,1.46,4,1.46,6.33v5.09c0,.81,.65,1.43,1.49,1.49v1.46Zm-4.19-4.81v-4.56c-2.33,.44-8.01,1.8-8.01,4.87,0,1.99,1.15,3.51,3.35,3.51,2.54,0,4.66-1.71,4.66-3.82"/>
    <path class="cls-6" d="M142.21,6.05h1.71V.84L146.62,0V6.05h3.07v1.49h-3.07v9.59c0,1.58,.87,2.7,2.54,2.7,.59,0,1.43-.09,1.99-.25v1.43c-.53,.25-1.71,.4-2.3,.4-2.79,0-4.93-1.46-4.93-4.41V7.54h-1.71v-1.49Z"/>
    <path class="cls-6" d="M165.86,17.48l.96,1.03c-1.37,1.76-3.44,2.91-5.8,2.91-5.03,0-8.07-3.94-8.07-7.85,.03-3.94,3.2-7.85,8.13-7.85,3.44,0,5.8,2.15,5.8,4.85,0,4.46-7.51,5.79-10.37,6.12,.9,2.21,2.89,3.27,4.5,3.27,1.86,0,3.6-1,4.84-2.49m-9.68-1.97c2.51-.45,8.16-1.85,8.16-4.94,0-1.88-1.21-3.4-3.26-3.4-3.97,0-6.02,4.4-4.9,8.34"/>
    <path class="cls-6" d="M180.58,17.08c0,2.21-2.89,4.34-6.12,4.34-2.58,0-4.53-.82-5.83-1.73l1.43-1.3c1.21,1.18,2.98,1.85,4.56,1.85s3.26-.85,3.26-2.36c0-4.31-9.4-2.55-9.4-8.22,0-2.12,2.36-3.94,5.46-3.94,2.27,0,4.22,.7,5.8,1.88l-1.4,1.33c-1.64-1.43-2.92-2.06-4.41-2.06-1.83,0-2.76,.94-2.76,2.21,0,3.88,9.41,2.33,9.41,8"/>
    <path class="cls-6" d="M77.31,24.63c3.14,0,5.65,2.51,5.68,5.65,0,3.1-2.55,5.65-5.68,5.65h-5.18v10.12h-2.7V24.63h7.88Zm-1.52,9.93c2.45,0,4.47-1.83,4.47-4.28s-2.02-4.31-4.47-4.31h-3.66v8.6h3.66Z"/>
    <path class="cls-6" d="M92.76,30.3c4.47,0,8.1,3.63,8.1,8.04s-3.63,8.07-8.04,8.07-8.07-3.63-8.07-8.01,3.63-8.1,8.01-8.1m.03,14.65c2.98,0,5.28-2.92,5.28-6.58-.03-3.69-2.3-6.61-5.28-6.61s-5.28,2.92-5.25,6.61c0,3.66,2.3,6.58,5.25,6.58"/>
    <polygon class="cls-6" points="109.15 46.04 102.63 30.26 105.58 30.26 110.76 42.86 113.62 36.02 111.23 30.26 114.21 30.26 119.39 42.86 124.61 30.26 126.32 30.26 120.26 44.9 120.73 46.04 117.78 46.04 114.46 38.06 111.63 44.93 112.1 46.04 109.15 46.04"/>
    <path class="cls-6" d="M139.22,42.38l.96,1.06c-1.37,1.8-3.44,2.98-5.8,2.98-5.03,0-8.07-4.03-8.07-8.04,.03-4.04,3.2-8.04,8.13-8.04,3.44,0,5.8,2.2,5.8,4.97,0,4.56-7.51,5.93-10.37,6.27,.9,2.27,2.89,3.35,4.5,3.35,1.86,0,3.6-1.03,4.84-2.55m-9.68-2.02c2.51-.47,8.16-1.89,8.16-5.06,0-1.92-1.21-3.48-3.26-3.48-3.97,0-6.02,4.5-4.9,8.54"/>
    <path class="cls-6" d="M160.84,44.25v1.4c-.53,.24-1.71,.4-2.3,.4-2.79,0-4.94-.97-4.94-4.33V25.45l2.7-.82v17.21c0,1.55,.87,2.65,2.54,2.65,.59,0,1.43-.09,1.99-.24"/>
    <path class="cls-6" d="M170.06,33.63c0-.81-.65-1.46-1.49-1.46v-1.49c1.83,0,3.97,.78,4.19,3.04,1.27-1.92,3.38-3.41,5.52-3.41,3.38,0,5.65,2.51,5.65,6.18v9.56h-2.7v-9.31c0-2.58-.87-4.56-3.38-4.56s-5.09,2.76-5.09,5.56v8.32h-2.7v-12.42Z"/>
    <polygon class="cls-6" points="185.7 25.46 188.4 24.63 188.4 39.68 195.94 30.68 197.8 30.68 192.62 36.85 199.33 46.04 195.94 46.04 190.82 39 188.4 41.88 188.4 46.04 185.7 46.04 185.7 25.46"/>
    <polygon class="cls-1" points="73.73 54.47 73.73 55.45 69.44 55.45 69.44 49.24 73.66 49.24 73.66 50.22 70.63 50.22 70.63 51.82 73.4 51.82 73.4 52.79 70.63 52.79 70.63 54.47 73.73 54.47"/>
    <polygon class="cls-1" points="78.91 54.47 78.91 55.45 74.99 55.45 74.99 49.24 76.17 49.24 76.17 54.47 78.91 54.47"/>
    <polygon class="cls-1" points="84.31 54.47 84.31 55.45 80.02 55.45 80.02 49.24 84.24 49.24 84.24 50.22 81.2 50.22 81.2 51.82 83.97 51.82 83.97 52.79 81.2 52.79 81.2 54.47 84.31 54.47"/>
    <path class="cls-1" d="M85.16,52.33c0-1.9,1.32-3.17,3.29-3.17,1.02,0,1.84,.33,2.45,1l-.75,.75c-.35-.45-.95-.77-1.69-.77-1.25,0-2.08,.88-2.08,2.2s.85,2.22,2.1,2.22c.84,0,1.42-.38,1.81-.98l.8,.71c-.6,.81-1.5,1.25-2.63,1.25-1.97,0-3.3-1.28-3.3-3.21"/>
    <polygon class="cls-1" points="96.47 50.22 94.58 50.22 94.58 55.45 93.39 55.45 93.39 50.22 91.5 50.22 91.5 49.24 96.47 49.24 96.47 50.22"/>
    <path class="cls-1" d="M99.95,53.17h-1.27v2.28h-1.18v-6.21h2.6c1.31,0,2.17,.79,2.17,1.96,0,.81-.43,1.43-1.15,1.74l1.64,2.51h-1.39l-1.42-2.28Zm-1.27-.98h1.2c.7,0,1.17-.39,1.17-.98s-.44-.98-1.09-.98h-1.28v1.96Z"/>
    <path class="cls-1" d="M103.33,52.34c0-1.91,1.31-3.19,3.26-3.19s3.26,1.28,3.26,3.19-1.31,3.19-3.26,3.19-3.26-1.28-3.26-3.19m5.3,0c0-1.32-.81-2.21-2.03-2.21s-2.04,.88-2.04,2.21,.82,2.21,2.04,2.21,2.03-.88,2.03-2.21"/>
    <polygon class="cls-1" points="117.04 55.45 116.8 51.21 114.9 55.45 114.25 55.45 112.35 51.23 112.11 55.45 110.92 55.45 111.34 49.21 112.64 49.21 114.57 53.51 116.5 49.21 117.8 49.21 118.22 55.45 117.04 55.45"/>
    <polygon class="cls-1" points="123.96 54.47 123.96 55.45 119.67 55.45 119.67 49.24 123.89 49.24 123.89 50.22 120.86 50.22 120.86 51.82 123.63 51.82 123.63 52.79 120.86 52.79 120.86 54.47 123.96 54.47"/>
    <path class="cls-1" d="M124.82,52.33c0-1.9,1.32-3.17,3.29-3.17,1.01,0,1.84,.33,2.45,1l-.75,.75c-.35-.45-.95-.77-1.69-.77-1.25,0-2.08,.88-2.08,2.2s.85,2.22,2.1,2.22c.84,0,1.42-.38,1.81-.98l.8,.71c-.6,.81-1.5,1.25-2.63,1.25-1.97,0-3.3-1.28-3.3-3.21"/>
    <polygon class="cls-1" points="137.49 49.24 137.49 55.45 136.31 55.45 136.31 52.77 132.99 52.77 132.99 55.45 131.8 55.45 131.8 49.24 132.99 49.24 132.99 51.8 136.31 51.8 136.31 49.24 137.49 49.24"/>
    <path class="cls-1" d="M143,54.22h-2.86l-.5,1.23h-1.27l2.65-6.21h1.1l2.65,6.21h-1.27l-.5-1.23Zm-.39-.98l-1.03-2.53-1.03,2.53h2.07Z"/>
    <polygon class="cls-1" points="145.66 49.24 146.4 49.24 150.31 53.44 150.28 49.24 151.47 49.24 151.47 55.45 150.74 55.45 146.83 51.25 146.84 55.45 145.66 55.45 145.66 49.24"/>
    <rect class="cls-1" x="153.11" y="49.24" width="1.18" height="6.21"/>
    <path class="cls-1" d="M155.56,52.33c0-1.9,1.32-3.17,3.29-3.17,1.02,0,1.84,.33,2.45,1l-.75,.75c-.35-.45-.95-.77-1.69-.77-1.25,0-2.08,.88-2.08,2.2s.85,2.22,2.1,2.22c.84,0,1.42-.38,1.81-.98l.8,.71c-.6,.81-1.5,1.25-2.63,1.25-1.97,0-3.3-1.28-3.3-3.21"/>
    <path class="cls-1" d="M166.38,54.22h-2.86l-.5,1.23h-1.27l2.65-6.21h1.1l2.65,6.21h-1.27l-.5-1.23Zm-.39-.98l-1.03-2.53-1.03,2.53h2.07Z"/>
    <polygon class="cls-1" points="172.97 54.47 172.97 55.45 169.04 55.45 169.04 49.24 170.22 49.24 170.22 54.47 172.97 54.47"/>
    <polygon class="cls-11" points="182.18 54.47 182.18 55.45 178.25 55.45 178.25 49.24 179.43 49.24 179.43 54.47 182.18 54.47"/>
    <polygon class="cls-11" points="189.58 54.47 189.58 55.45 185.66 55.45 185.66 49.24 186.84 49.24 186.84 54.47 189.58 54.47"/>
    <path class="cls-11" d="M192.46,52.33c0-1.9,1.32-3.17,3.29-3.17,1.02,0,1.84,.33,2.45,1l-.75,.75c-.35-.45-.95-.77-1.69-.77-1.25,0-2.08,.88-2.08,2.2s.85,2.22,2.1,2.22c.84,0,1.42-.38,1.81-.98l.8,.71c-.6,.81-1.5,1.25-2.63,1.25-1.97,0-3.3-1.28-3.3-3.21"/>
  </g>
</svg>